<svg xmlns="http://www.w3.org/2000/svg" viewBox="0 0 80 80"><defs><style>.cls-1{fill:#aaa;}</style></defs><title>daorutupian</title><g id="图层_2" data-name="图层 2"><g id="图层_1-2" data-name="图层 1"><path class="cls-1" d="M10,0A10,10,0,0,0,0,10V70A10,10,0,0,0,10,80H70A10,10,0,0,0,80,70V10A10,10,0,0,0,70,0ZM20,10A10,10,0,1,1,10,20,10,10,0,0,1,20,10Zm0,15a5,5,0,1,0-5-5,5,5,0,0,0,5,5ZM5,70V67.65L21.13,53.21a5.33,5.33,0,0,1,7.28.2L50,75H10A5,5,0,0,1,5,70Zm65,5H57.08L38.66,56.34,56.48,38.52a5,5,0,0,1,7.07,0L75,50V70A5,5,0,0,1,70,75ZM5,61.58V10a5,5,0,0,1,5-5H70a5,5,0,0,1,5,5V43.17L63.43,32.58a5.32,5.32,0,0,0-7.28.16L35.5,53.21l-6.85-5.9a5.91,5.91,0,0,0-7.51,0Z"/></g></g></svg>