<svg xmlns="http://www.w3.org/2000/svg" viewBox="0 0 80 80"><defs><style>.cls-1{fill:#aaa;}.cls-2{fill:#fff;}</style></defs><title>daoruCAD</title><g id="图层_2" data-name="图层 2"><g id="图层_1-2" data-name="图层 1"><path class="cls-1" d="M70.72,14,69,12.36c-1.8-1.64-3.56-3.28-5.28-4.84a3.25,3.25,0,0,1-.4-.36c-2.28-2-4.16-3.72-5.56-4.92C57,1.56,56.28,1,55.84.68A4,4,0,0,0,55,.16,3.26,3.26,0,0,0,54,0a2,2,0,0,0-2,2V20H70l-2-2V78l2-2H18a6,6,0,0,1-6-6V2L10,4H46a2,2,0,0,0,2-2,2,2,0,0,0-2-2H8V70A10,10,0,0,0,18,80H72V16H54l2,2V2a2,2,0,0,1-1.92,2,1.34,1.34,0,0,1-.76-.16s.08,0,.2.12c.36.28,1,.72,1.68,1.36,1.36,1.16,3.2,2.8,5.44,4.8a3.25,3.25,0,0,1,.4.36c1.68,1.52,3.48,3.16,5.24,4.8.64.56,1.2,1.12,1.72,1.6.32.28.52.48.64.6a2,2,0,1,0,2.76-2.92,3.52,3.52,0,0,1-.68-.6ZM8,36H0V70H80V36H12v0H8v0Z"/><path class="cls-2" d="M29.84,48.52l-3.56.92a5.33,5.33,0,0,0-5.28-4c-3.76.28-5.8,2.84-6.08,7.68.2,4.84,2.24,7.44,6.08,7.8,3.12,0,4.92-1.72,5.48-5.16L30,56.84q-1.5,7-9,7c-6.28-.32-9.56-3.92-9.92-10.72.32-6.8,3.64-10.4,9.92-10.84,4.44.2,7.4,2.28,8.8,6.28Zm13.88-6L52,63.48H48l-2-5.36H37.12l-2,5.36H31.24l8.2-20.92Zm-2.16,3a4.06,4.06,0,0,1-.32.92,4.43,4.43,0,0,1-.32.92c-.08.12-1,2.76-2.92,7.88h7.2c-2-5.12-3-7.76-3-7.88a11.48,11.48,0,0,0-.52-1.4C41.6,45.8,41.56,45.64,41.56,45.6ZM61.2,63.48h-7V42.56h6.88c7.08.12,10.68,3.6,10.84,10.4.2,7.24-3.36,10.72-10.72,10.52ZM61,45.6H57.76V60.68h3.12c4.84,0,7.28-2.56,7.28-7.68C68,48.2,65.64,45.72,61,45.6Z"/></g></g></svg>