<svg xmlns="http://www.w3.org/2000/svg" viewBox="0 0 40 40"><defs><style>.cls-1,.cls-2{fill:#666;}.cls-1,.cls-3{fill-rule:evenodd;}.cls-3{fill:#87a965;}</style></defs><title>fangan</title><g id="图层_2" data-name="图层 2"><g id="图层_1-2" data-name="图层 1"><path class="cls-1" d="M39,0H0V40H40V0ZM1,39V1H39V39Z"/><rect class="cls-2" x="4" y="4" width="6" height="1"/><rect class="cls-2" x="13" y="4" width="6" height="1"/><rect class="cls-2" x="22" y="4" width="6" height="1"/><polygon class="cls-1" points="31 4 31 5 35 5 35 6 36 6 36 5 36 4 31 4"/><rect class="cls-2" x="4" y="7" width="1" height="6"/><polygon class="cls-1" points="5 18 8 18 8 17 5 17 5 16 4 16 4 22 5 22 5 18"/><rect class="cls-2" x="4" y="25" width="1" height="6"/><polygon class="cls-1" points="5 34 4 34 4 36 5 36 9 36 9 35 5 35 5 34"/><rect class="cls-2" x="35" y="8" width="1" height="6"/><rect class="cls-2" x="32" y="23" width="1" height="6"/><polygon class="cls-1" points="32 35 30 35 30 36 32 36 33 36 33 32 32 32 32 35"/><polygon class="cls-1" points="30 17 30 18 32 18 32 20 33 20 33 18 36 18 36 17 32 17 30 17"/><rect class="cls-2" x="21" y="35" width="6" height="1"/><rect class="cls-2" x="12" y="35" width="6" height="1"/><g id="搜索方案8"><path class="cls-3" d="M26.09,24.52l-2.86-2.86a5.55,5.55,0,1,0-1.89,2.06l2.77,2.77a1.4,1.4,0,1,0,2-2Z"/></g><g id="搜索方案"><path class="cls-2" d="M23.81,22.41l2.39,2a.4.4,0,0,1,.09.26.38.38,0,0,1-.39.39.39.39,0,0,1-.27-.1l-2.09-2.32.27-.27m0-1.36-1.6,1.6,2.75,3.05a1.39,1.39,0,0,0,1,.4,1.39,1.39,0,0,0,1-2.38l-3.13-2.67Z"/></g><g id="搜索方案-2" data-name="搜索方案"><path class="cls-2" d="M19.13,13.64a4.59,4.59,0,1,1-3.24,7.82,4.58,4.58,0,0,1,3.24-7.82m0-1a5.59,5.59,0,1,0,3.95,1.64,5.57,5.57,0,0,0-3.95-1.64Z"/></g></g></g></svg>