<svg xmlns="http://www.w3.org/2000/svg" viewBox="0 0 40 40"><defs><style>.cls-1,.cls-3{fill:#666;}.cls-2{fill:#87a965;}.cls-2,.cls-3{fill-rule:evenodd;}</style></defs><title>huxingtu</title><g id="图层_2" data-name="图层 2"><g id="图层_1-2" data-name="图层 1"><g id="搜索户型"><path class="cls-1" d="M35.81,34.41l2.39,2a.4.4,0,0,1,.09.26.38.38,0,0,1-.39.39.39.39,0,0,1-.27-.1l-2.09-2.32.27-.27m-.05-1.36-1.6,1.6,2.75,3.05a1.39,1.39,0,0,0,1,.4,1.39,1.39,0,0,0,1-2.38l-3.13-2.67Z"/></g><g id="搜索户型8"><path class="cls-2" d="M38.09,36.52l-2.86-2.86a5.55,5.55,0,1,0-1.89,2.06l2.77,2.77a1.4,1.4,0,0,0,2-2Z"/></g><g id="搜索户型-2" data-name="搜索户型"><path class="cls-1" d="M31.13,25.64A4.58,4.58,0,1,1,27.89,27a4.55,4.55,0,0,1,3.24-1.34m0-1a5.59,5.59,0,1,0,3.95,1.64,5.57,5.57,0,0,0-3.95-1.64Z"/></g><polygon class="cls-3" points="39 0 0 0 0 1 0 40 1 40 25 40 25 39 1 39 1 1 39 1 39 25 40 25 40 0 39 0"/><rect class="cls-1" x="8" y="8" width="4" height="1"/><rect class="cls-1" x="14" y="8" width="4" height="1"/><rect class="cls-1" x="20" y="8" width="4" height="1"/><rect class="cls-1" x="26" y="8" width="4" height="1"/><rect class="cls-1" x="29" y="10" width="1" height="4"/><polygon class="cls-3" points="29 17 27 17 27 18 29 18 30 18 30 16 29 16 29 17"/><rect class="cls-1" x="21" y="21" width="1" height="4"/><polygon class="cls-3" points="21 29 18 29 18 30 21 30 22 30 22 29 22 27 21 27 21 29"/><rect class="cls-1" x="13" y="29" width="3" height="1"/><polygon class="cls-3" points="9 28 8 28 8 29 8 30 10 30 10 29 9 29 9 28"/><rect class="cls-1" x="8" y="22" width="1" height="4"/><polygon class="cls-3" points="9 16 8 16 8 20 9 20 9 18 11 18 11 17 9 17 9 16"/><rect class="cls-1" x="8" y="10" width="1" height="4"/><polygon class="cls-3" points="21 17 19 17 19 18 21 18 21 19 22 19 22 18 25 18 25 17 22 17 21 17"/></g></g></svg>