<svg xmlns="http://www.w3.org/2000/svg" viewBox="0 0 40 39"><defs><style>.cls-1{fill:#666;}.cls-2{fill:#87a965;fill-rule:evenodd;}</style></defs><title>huxingtu_1</title><g id="图层_2" data-name="图层 2"><g id="图层_1-2" data-name="图层 1"><polygon class="cls-1" points="40 5 39 5 33 5 33 6 39 6 39 38 1 38 1 31 0 31 0 39 1 39 40 39 40 38 40 5 40 5"/><polygon class="cls-2" points="21 11 21 2 4 2 4 29 21 29 31 29 31 11 21 11"/><polygon class="cls-1" points="7 0 3 0 3 1 7 1 7 0 7 0"/><polygon class="cls-1" points="3 2 2 2 2 6 3 6 3 2 3 2"/><polygon class="cls-1" points="3 8 2 8 2 12 3 12 3 10 6 10 6 9 3 9 3 8 3 8"/><polygon class="cls-1" points="13 0 9 0 9 1 13 1 13 0 13 0"/><polygon class="cls-1" points="19 0 15 0 15 1 19 1 19 0 19 0"/><polygon class="cls-1" points="19 3 18 3 18 7 19 7 19 3 19 3"/><polygon class="cls-1" points="19 8 18 8 18 9 15 9 15 10 21 10 21 9 19 9 19 8 19 8"/><polygon class="cls-1" points="27 9 23 9 23 10 27 10 27 9 27 9"/><polygon class="cls-1" points="29 9 28 9 28 13 29 13 29 9 29 9"/><polygon class="cls-1" points="3 14 2 14 2 18 3 18 3 14 3 14"/><polygon class="cls-1" points="3 20 2 20 2 24 3 24 3 20 3 20"/><polygon class="cls-1" points="3 25 2 25 2 26 2 27 5 27 5 26 3 26 3 25 3 25"/><polygon class="cls-1" points="11 26 7 26 7 27 11 27 11 26 11 26"/><polygon class="cls-1" points="17 26 13 26 13 27 17 27 17 26 17 26"/><polygon class="cls-1" points="23 26 19 26 19 27 23 27 23 26 23 26"/><polygon class="cls-1" points="29 15 28 15 28 19 29 19 29 15 29 15"/><polygon class="cls-1" points="29 21 28 21 28 25 29 25 29 21 29 21"/><polygon class="cls-1" points="29 26 25 26 25 27 29 27 29 26 29 26"/></g></g></svg>