<?xml version="1.0" encoding="utf-8"?>
<svg version="1.1" xmlns:xlink="http://www.w3.org/1999/xlink" width="28px" height="26px" xmlns="http://www.w3.org/2000/svg">
  <g transform="matrix(1 0 0 1 -1365 -144 )">
    <path d="M 25.9 23.79  L 15.7325 12.9628571428571  L 25.8825 2.22857142857143  C 26.355 1.72714285714286  26.3725 0.891428571428572  25.8825 0.39  C 25.41 -0.111428571428571  24.6225 -0.13  24.15 0.39  L 14 11.1057142857143  L 3.92 0.39  C 3.4475 -0.111428571428571  2.66 -0.111428571428571  2.1875 0.39  C 1.715 0.891428571428571  1.715 1.72714285714286  2.1875 2.22857142857143  L 12.25 12.9628571428571  L 2.1 23.6785714285714  C 1.6275 24.18  1.61 25.0157142857143  2.1 25.5171428571429  C 2.5725 26.0185714285714  3.36 26.0371428571429  3.8325 25.5171428571429  L 14 14.7828571428571  L 24.1675 25.61  C 24.64 26.1114285714286  25.41 26.13  25.9 25.6285714285714  C 26.3725 25.1271428571429  26.39 24.2914285714286  25.9 23.79  Z " fill-rule="nonzero" fill="#aaaaaa" stroke="none" transform="matrix(1 0 0 1 1365 144 )" />
  </g>
</svg>