<?xml version="1.0" encoding="utf-8"?>
<svg version="1.1" xmlns:xlink="http://www.w3.org/1999/xlink" width="10px" height="12px" xmlns="http://www.w3.org/2000/svg">
  <g transform="matrix(1 0 0 1 -758 -710 )">
    <path d="M 8.17423914611279 8.44477817089622  C 10.045290638973 6.51284139791789  10.045290638973 3.45686868429761  8.17423914611279 1.53195713594828  C 7.28515794028559 0.618677934176699  6.06433001586615 0.0988113116298006  4.79042261647195 0.0988113116298006  C 3.51651521707774 0.0988113116298006  2.28905235828646 0.618677934176699  1.4066060868311 1.53195713594828  C -0.464445406029136 3.45686868429761  -0.464445406029136 6.51284139791789  1.4066060868311 8.44477817089622  L 4.79042261647195 11.9011886883702  L 8.17423914611279 8.44477817089622  Z M 7.00649069666811 5.26235141395373  C 7.01312563103996 6.48474049940184  6.01788547526323 7.47529717209255  4.79705755084379 7.47529717209255  C 3.58286456079619 7.47529717209255  2.58762440501947 6.48474049940184  2.58762440501947 5.26235141395373  C 2.58762440501947 4.03996232850561  3.58286456079619 3.0494056558149  4.79705755084379 3.0494056558149  C 6.01788547526323 3.0494056558149  7.00649069666811 4.03996232850561  7.00649069666811 5.26235141395373  Z " fill-rule="nonzero" fill="#aaaaaa" stroke="none" transform="matrix(1 0 0 1 758 710 )" />
  </g>
</svg>