<svg xmlns="http://www.w3.org/2000/svg" xmlns:xlink="http://www.w3.org/1999/xlink" viewBox="0 0 20 20"><defs><style>.cls-1{fill:url(#未命名的渐变_3);}</style><linearGradient id="未命名的渐变_3" y1="10" x2="20" y2="10" gradientUnits="userSpaceOnUse"><stop offset="0" stop-color="#e1efa5"/><stop offset="0.89" stop-color="#5b822e" stop-opacity="0.9"/></linearGradient></defs><title>hx_pmt_active</title><g id="图层_2" data-name="图层 2"><g id="图层_1-2" data-name="图层 1"><path class="cls-1" d="M10,0A10,10,0,1,0,20,10,10,10,0,0,0,10,0Zm5.1,10.35-1.29.52v3.56a.9.9,0,0,1-.88.92h-1.4V11.9a.48.48,0,0,0-.48-.5H9a.48.48,0,0,0-.48.5v3.45H7a.9.9,0,0,1-.88-.92V10.74L4.9,10.23A.91.91,0,0,1,4.9,9l4.43-4a.88.88,0,0,1,1.28,0l1.77,1.63V6a.69.69,0,1,1,1.37,0V7.7a.48.48,0,0,1,0,.12L15.1,9.07A.91.91,0,0,1,15.1,10.35Z"/></g></g></svg>