<svg xmlns="http://www.w3.org/2000/svg" xmlns:xlink="http://www.w3.org/1999/xlink" viewBox="0 0 20 20"><defs><style>.cls-1{fill:url(#未命名的渐变_3);}.cls-2{fill:url(#未命名的渐变_3-2);}</style><linearGradient id="未命名的渐变_3" x1="10.6" y1="8.17" x2="13.05" y2="8.17" gradientUnits="userSpaceOnUse"><stop offset="0" stop-color="#e1efa5"/><stop offset="0.89" stop-color="#5b822e" stop-opacity="0.9"/></linearGradient><linearGradient id="未命名的渐变_3-2" x1="0" y1="10" x2="20" y2="10" xlink:href="#未命名的渐变_3"/></defs><title>hx_xgt_active</title><g id="图层_2" data-name="图层 2"><g id="图层_1-2" data-name="图层 1"><path class="cls-1" d="M11.88,6.94A1.23,1.23,0,0,0,10.6,8.11a1.23,1.23,0,0,0,2.45.11A1.23,1.23,0,0,0,11.88,6.94Z"/><path class="cls-2" d="M10,0A10,10,0,1,0,20,10,10,10,0,0,0,10,0ZM6.9,14a3.43,3.43,0,0,1-1.46.57A3.89,3.89,0,0,1,6,13.08.71.71,0,0,1,7,13,.71.71,0,0,1,6.9,14Zm5.42-1.82A3.87,3.87,0,0,1,11,15.2l-.16.16L9.29,13.07a1.73,1.73,0,0,1-1.93-.46,1.72,1.72,0,0,1-.45-1.94L4.64,9.15,4.8,9a3.94,3.94,0,0,1,3-1.32c2.46-2.86,5.35-3.36,7.23-2.86l.11,0,0,.11C15.69,6.81,15.18,9.67,12.32,12.14Z"/></g></g></svg>